<?xml version="1.0" encoding="UTF-8"?>
<svg id="Full_Logo" data-name="Full Logo" xmlns="http://www.w3.org/2000/svg" viewBox="0 0 2044.8 634.5">
  <defs>
    <style>
      .cls-1, .cls-2, .cls-3 {
        stroke-width: 0px;
      }

      .cls-2 {
        fill: #fff;
      }

      .cls-3 {
        fill: #fba919;
      }
    </style>
  </defs>
  <g id="Black_Type_Black_or_Alpha_BG" data-name="Black Type, Black or Alpha BG">
    <g>
      <g>
        <g>
          <path class="cls-1" d="m723.81,230.21c10.9,0,21.59,1.25,32.05,3.75,10.46,2.5,20.37,6.55,29.71,12.14l-2,16.78c-9.8-2.79-18.53-4.94-26.21-6.44-7.68-1.5-15.97-2.25-24.87-2.25s-16.08,1.35-21.53,4.05c-5.46,2.7-9.46,7.84-12.02,15.44-2.56,7.6-3.84,18.39-3.84,32.37s1.22,24.53,3.67,32.22c2.45,7.7,6.34,13.04,11.68,16.04,5.34,2.99,12.13,4.49,20.37,4.49,6.23,0,11.9-.7,17.03-2.1,5.12-1.4,10.46-3.69,16.03-6.89,5.56-3.2,12.13-7.19,19.7-11.99l2.67,18.58c-8.46,7.6-18.31,14.04-29.55,19.33-11.24,5.29-23.65,7.94-37.22,7.94-20.48,0-35.17-6.54-44.07-19.63-8.9-13.08-13.35-32.32-13.35-57.7,0-19.18,2.28-34.32,6.84-45.41,4.56-11.09,11.4-18.98,20.53-23.68,9.12-4.69,20.58-7.04,34.39-7.04Zm88.14-54.63v199.19c0,2.94-2.38,5.32-5.32,5.32h-15.44c-2.65,0-4.89-1.95-5.26-4.57l-3.02-21.21-3.34-2.4v-99.51l2-4.49c-.89-5.6-1.45-11.09-1.67-16.49-.22-5.39-.33-11.09-.33-17.08v-38.75c0-2.94,2.38-5.32,5.32-5.32h21.75c2.94,0,5.32,2.38,5.32,5.32Z"/>
          <path class="cls-1" d="m853.03,233.81c2.2,0,4.17,1.35,4.96,3.4l39.75,103.01c1.11,3,2.17,6.05,3.17,9.14,1,3.1,1.84,6.25,2.5,9.44h8.01l-10.35,21.28h-9.35c-2.67,0-5.01-.65-7.01-1.95-2-1.3-3.45-3.15-4.34-5.54l-55.01-131.41c-1.47-3.5,1.11-7.37,4.9-7.37h22.75Zm129.2,0c3.8,0,6.37,3.87,4.9,7.37l-61.02,145.8c-2.67,6.59-6.07,13.09-10.18,19.48-4.12,6.39-9.18,12.24-15.19,17.53-6.01,5.29-13.08,9.54-21.2,12.74-6.87,2.7-14.65,4.26-23.35,4.68-2.74.13-5.17-1.75-5.61-4.45l-1.49-9.07c-.43-2.59,1.07-5.16,3.57-5.96,11.27-3.61,20.11-8.17,26.54-13.68,7.23-6.2,12.96-13.79,17.19-22.78l8.35-17.98c1.78-4.2,3.56-8.85,5.34-13.94,1.78-5.1,3.45-9.54,5.01-13.34l39.09-102.98c.78-2.06,2.76-3.43,4.97-3.43h23.06Z"/>
          <path class="cls-1" d="m1028.11,238.56l2.5,23.42,2.34,4.19v108.59c0,2.94-2.38,5.32-5.32,5.32h-21.42c-2.94,0-5.32-2.38-5.32-5.32v-135.64c0-2.94,2.38-5.32,5.32-5.32h16.61c2.72,0,5,2.05,5.29,4.75Zm74.61-8.35c29.6,0,44.4,13.39,44.4,40.17v104.39c0,2.94-2.38,5.32-5.32,5.32h-21.75c-2.94,0-5.32-2.38-5.32-5.32v-96c0-9.19-1.67-15.53-5.01-19.03-3.34-3.49-9.13-5.25-17.36-5.25-9.35,0-18.81,2.05-28.38,6.15-9.57,4.1-21.03,9.74-34.39,16.94l-1.33-19.48c12.46-8.99,24.92-15.89,37.39-20.68,12.46-4.79,24.81-7.19,37.06-7.19Z"/>
          <path class="cls-1" d="m1297.35,289.86l-.33,20.39-76.78.3c-7.57.2-12.85,1.95-15.86,5.25-3.01,3.3-4.51,7.85-4.51,13.64v8.99c0,7.2,1.95,12.44,5.84,15.74,3.89,3.3,10.07,4.95,18.53,4.95,6.23,0,13.19-1.05,20.87-3.15,7.68-2.1,15.41-5.29,23.2-9.59,7.79-4.29,14.8-9.74,21.03-16.34v18.89c-2.23,2.8-5.57,6.14-10.02,10.04-4.46,3.9-9.85,7.65-16.19,11.24-6.34,3.6-13.35,6.59-21.03,8.99-7.68,2.4-16.08,3.6-25.21,3.6-9.8,0-18.42-1.55-25.87-4.65-7.46-3.1-13.3-7.69-17.53-13.79-4.23-6.09-6.34-13.54-6.34-22.33v-15.88c0-11.39,4.06-20.28,12.18-26.68,8.12-6.39,19.42-9.59,33.89-9.59h84.13Zm-42.73-59.65c12.46,0,22.98,1.45,31.55,4.35,8.56,2.9,15.02,7.84,19.36,14.83,4.34,7,6.51,16.59,6.51,28.78v99.61c0,1.27-1.03,2.3-2.3,2.3h-21.1c-1.13,0-2.1-.83-2.28-1.95l-4.7-29.83-2-3.6v-66.54c-.22-8.59-2.5-14.79-6.84-18.58-4.34-3.8-12.74-5.7-25.21-5.7-8.46,0-19.09.4-31.88,1.2-11.14.69-22.14,1.39-33.02,2.09-2.76.18-5.18-1.8-5.57-4.54l-1.54-10.6c-.42-2.91,1.59-5.61,4.51-6.03,6.14-.89,12.79-1.72,19.94-2.5,9.23-1,18.64-1.8,28.21-2.4,9.57-.6,18.36-.9,26.37-.9Z"/>
          <path class="cls-1" d="m1367.53,238.69l1.93,23.3,3.34,4.19v108.59c0,2.94-2.38,5.32-5.32,5.32h-21.42c-2.94,0-5.32-2.38-5.32-5.32v-135.64c0-2.94,2.38-5.32,5.32-5.32h16.17c2.77,0,5.07,2.12,5.3,4.88Zm67.37-8.47c14.02,0,24.7,3.35,32.05,10.04,7.34,6.7,11.13,16.74,11.35,30.12v104.39c0,2.94-2.38,5.32-5.32,5.32h-20.42c-2.94,0-5.32-2.38-5.32-5.32v-96c0-8.79-2-15.03-6.01-18.73-4.01-3.69-10.02-5.55-18.03-5.55-5.34,0-10.46.75-15.36,2.25-4.9,1.5-10.41,3.95-16.52,7.34-6.12,3.4-13.52,7.9-22.2,13.49l-2-19.48c11.57-9.39,22.81-16.38,33.72-20.98,10.9-4.59,22.25-6.89,34.05-6.89Zm105.83,0c14.24,0,25.09,3.4,32.55,10.19,7.45,6.8,11.18,16.79,11.18,29.97v104.39c0,2.94-2.38,5.32-5.32,5.32h-21.42c-2.94,0-5.32-2.38-5.32-5.32v-96c-.22-8.39-2.12-14.54-5.68-18.43-3.56-3.9-9.68-5.85-18.36-5.85-5.34,0-10.46.8-15.36,2.4-4.9,1.6-10.35,4.05-16.36,7.34s-13.24,7.75-21.7,13.34l-1.67-19.48c11.57-9.39,22.81-16.38,33.72-20.98,10.9-4.59,22.14-6.89,33.72-6.89Z"/>
          <path class="cls-1" d="m1645.78,275.49v99.28c0,2.94-2.38,5.32-5.32,5.32h-20.74c-2.94,0-5.32-2.38-5.32-5.32v-99.28c0-1.23.99-2.22,2.22-2.22h26.93c1.23,0,2.22.99,2.22,2.22Z"/>
          <path class="cls-1" d="m1747.11,230.19c5.12,0,10.73.2,16.86.6,6.12.4,12.46,1.1,19.03,2.1,4.72.72,9.19,1.7,13.4,2.93,2.71.8,5.06,1.73,4.47,4.49l-2.02,9.39c-.56,2.58-2.91,4.34-5.54,4.17-6.33-.42-12.76-.71-19.3-.87-8.13-.2-15.08-.3-20.87-.3-12.47,0-22.32,1.5-29.54,4.5-7.23,3-12.41,8.29-15.52,15.89-3.12,7.59-4.67,18.18-4.67,31.77s1.55,24.28,4.67,32.07c3.11,7.79,8.29,13.19,15.52,16.19,7.23,3,17.08,4.5,29.54,4.5,3.34,0,7.68-.1,13.02-.3,5.34-.2,11.13-.5,17.36-.9,4.42-.28,8.72-.66,12.92-1.15,2.85-.33,5.46,1.61,5.9,4.44l1.5,9.57c.41,2.6-1.12,5.15-3.64,5.9-7.07,2.1-14.74,3.68-23.02,4.76-10.02,1.3-19.92,1.95-29.71,1.95-19.14,0-34.44-2.5-45.9-7.49-11.47-4.99-19.75-13.09-24.87-24.28-5.12-11.19-7.68-26.27-7.68-45.26s2.61-33.76,7.85-44.96c5.23-11.19,13.57-19.23,25.04-24.13,11.46-4.89,26.08-5.57,45.22-5.57Z"/>
          <path class="cls-1" d="m1877.32,230.21c7.12,0,14.8.2,23.04.6,8.23.4,16.41.9,24.54,1.5,6.05.45,11.7,1.01,16.95,1.67,2.91.37,4.99,2.97,4.66,5.89l-1.18,10.34c-.32,2.76-2.71,4.8-5.48,4.7-8.81-.32-17.57-.61-26.29-.87-10.35-.3-20.65-.45-30.88-.45-9.8-.2-17.48,0-23.04.6-5.57.6-9.57,2.1-12.02,4.5-2.45,2.4-3.67,6.5-3.67,12.29,0,7,1.95,11.59,5.84,13.79,3.89,2.2,9.73,4.1,17.53,5.7l46.4,9.59c13.13,2.99,22.81,7.39,29.04,13.19,6.23,5.8,9.35,14.99,9.35,27.58s-2.5,21.03-7.51,27.13c-5.01,6.1-12.74,10.19-23.2,12.29-10.46,2.1-23.7,3.15-39.73,3.15-6.01,0-14.97-.2-26.87-.6-10.46-.36-21.83-1.4-34.1-3.14-2.85-.4-4.87-3.03-4.53-5.89l1.17-10.07c.32-2.75,2.69-4.8,5.46-4.7,3.72.14,7.66.28,11.8.41,6.01.2,12.35.3,19.03.3h20.7c12.02,0,21.42-.45,28.21-1.35,6.79-.9,11.57-2.7,14.35-5.39,2.78-2.7,4.17-6.74,4.17-12.14,0-6.59-2.29-11.04-6.84-13.34-4.56-2.29-10.74-4.25-18.53-5.85l-45.74-9.59c-9.35-2-16.75-4.75-22.2-8.24-5.46-3.49-9.35-7.89-11.68-13.19-2.34-5.29-3.51-11.94-3.51-19.93,0-11.19,2.22-19.73,6.68-25.63,4.45-5.89,11.4-9.89,20.87-11.99,9.46-2.1,21.87-3.05,37.22-2.85Z"/>
        </g>
        <path class="cls-3" d="m1637.52,230.21c6.38,0,9.57,2.86,9.57,8.57v16.85c0,5.72-3.19,8.57-9.57,8.57h-14.85c-6.38,0-9.57-2.85-9.57-8.57v-16.85c0-5.71,3.19-8.57,9.57-8.57h14.85Z"/>
      </g>
      <path class="cls-3" d="m1319.21,442.78c1.65,0,2.48.82,2.48,2.47v4.85c0,1.65-.83,2.47-2.48,2.47h-3.85c-1.65,0-2.48-.82-2.48-2.47v-4.85c0-1.64.83-2.47,2.48-2.47h3.85Z"/>
      <path class="cls-3" d="m1628.18,442.78c1.65,0,2.48.82,2.48,2.47v4.85c0,1.65-.83,2.47-2.48,2.47h-3.85c-1.65,0-2.48-.82-2.48-2.47v-4.85c0-1.64.83-2.47,2.48-2.47h3.85Z"/>
      <path class="cls-3" d="m1940.78,442.78c1.65,0,2.48.82,2.48,2.47v4.85c0,1.65-.83,2.47-2.48,2.47h-3.85c-1.65,0-2.48-.82-2.48-2.47v-4.85c0-1.64.83-2.47,2.48-2.47h3.85Z"/>
      <g>
        <path class="cls-1" d="m1031.95,428.58l-.08,5.43-18.29.08c-1.8.05-3.06.52-3.78,1.4-.71.88-1.07,2.09-1.07,3.63v2.4c0,1.91.47,3.31,1.39,4.19.93.88,2.4,1.32,4.41,1.32,1.48,0,3.14-.28,4.97-.84,1.83-.56,3.67-1.41,5.53-2.56,1.85-1.15,3.53-2.6,5.01-4.35v5.03c-.53.75-1.33,1.64-2.39,2.67-1.06,1.04-2.35,2.04-3.86,2.99-1.51.96-3.18,1.76-5.01,2.4s-3.83.96-6,.96c-2.33,0-4.39-.41-6.16-1.24-1.78-.82-3.17-2.05-4.18-3.67-1.01-1.62-1.51-3.61-1.51-5.95v-4.23c0-3.03.97-5.4,2.9-7.11,1.93-1.7,4.63-2.56,8.07-2.56h20.04Zm-10.18-15.89c2.97,0,5.47.39,7.52,1.16,2.04.77,3.58,2.09,4.61,3.95,1.03,1.86,1.55,4.42,1.55,7.67v27.15h-6.05l-1.19-8.47-.48-.96v-17.73c-.05-2.29-.6-3.94-1.63-4.95-1.03-1.01-3.04-1.52-6.01-1.52-2.02,0-4.55.11-7.6.32-3.05.22-6.06.43-9.03.64l-.72-5.51c1.8-.32,3.8-.61,6.01-.88,2.2-.27,4.44-.48,6.72-.64,2.28-.16,4.38-.24,6.28-.24Z"/>
        <path class="cls-1" d="m1057.4,413.65l.71,7.51.56,1.12v30.35h-7.64v-38.97h6.36Zm17.9-.96c7.05,0,10.58,3.57,10.58,10.7v29.23h-7.71v-26.99c0-2.45-.4-4.14-1.19-5.07-.8-.93-2.17-1.4-4.13-1.4-2.23,0-4.48.55-6.76,1.64-2.28,1.09-5.01,2.6-8.19,4.51l-.32-5.19c2.97-2.4,5.94-4.23,8.91-5.51,2.97-1.28,5.91-1.91,8.83-1.91Z"/>
        <path class="cls-1" d="m1130.42,428.58l-.08,5.43-18.29.08c-1.8.05-3.06.52-3.78,1.4-.71.88-1.07,2.09-1.07,3.63v2.4c0,1.91.47,3.31,1.39,4.19.93.88,2.4,1.32,4.41,1.32,1.48,0,3.14-.28,4.97-.84,1.83-.56,3.67-1.41,5.53-2.56,1.85-1.15,3.53-2.6,5.01-4.35v5.03c-.53.75-1.33,1.64-2.39,2.67-1.06,1.04-2.35,2.04-3.86,2.99-1.51.96-3.18,1.76-5.01,2.4s-3.83.96-6,.96c-2.33,0-4.39-.41-6.16-1.24-1.78-.82-3.17-2.05-4.18-3.67-1.01-1.62-1.51-3.61-1.51-5.95v-4.23c0-3.03.97-5.4,2.9-7.11,1.93-1.7,4.63-2.56,8.07-2.56h20.04Zm-10.18-15.89c2.97,0,5.47.39,7.52,1.16,2.04.77,3.58,2.09,4.61,3.95,1.03,1.86,1.55,4.42,1.55,7.67v27.15h-6.05l-1.19-8.47-.48-.96v-17.73c-.05-2.29-.6-3.94-1.63-4.95-1.03-1.01-3.04-1.52-6.01-1.52-2.02,0-4.55.11-7.6.32-3.05.22-6.06.43-9.03.64l-.72-5.51c1.8-.32,3.8-.61,6.01-.88,2.2-.27,4.44-.48,6.72-.64,2.28-.16,4.38-.24,6.28-.24Z"/>
        <path class="cls-1" d="m1157.22,396.72l-.08,44.8c0,1.65.46,2.9,1.39,3.75.93.85,2.21,1.28,3.86,1.28h3.66l.88,5.67c-.53.27-1.26.48-2.19.64-.93.16-1.88.28-2.86.36-.98.08-1.82.12-2.51.12-2.97,0-5.34-.85-7.12-2.56-1.78-1.7-2.66-4.18-2.66-7.43v-46.64h7.63Z"/>
        <path class="cls-1" d="m1179.25,413.65l9.78,28.35c.26.8.52,1.61.76,2.44.24.82.44,1.66.6,2.52h1.91l-2.47,5.67h-2.23c-.64,0-1.19-.17-1.67-.52-.48-.35-.82-.84-1.03-1.48l-13.84-36.97h8.19Zm31.82,0l-15.27,40.81c-.64,1.75-1.44,3.48-2.43,5.19-.98,1.7-2.19,3.26-3.62,4.67-1.43,1.41-3.12,2.54-5.05,3.4-1.93.85-4.17,1.28-6.72,1.28l-.71-4.87c3.18-1.01,5.63-2.35,7.36-3.99,1.72-1.65,3.09-3.67,4.1-6.07l1.99-4.79c.42-1.12.85-2.35,1.27-3.71.42-1.36.82-2.54,1.19-3.55l9.62-28.35h8.27Z"/>
        <path class="cls-1" d="m1235.57,412.69c1.7,0,3.53.05,5.49.16,1.96.11,3.91.24,5.85.4,1.93.16,3.7.38,5.29.64l-.56,5.43c-2.49-.11-4.97-.2-7.44-.28-2.47-.08-4.92-.12-7.36-.12-2.33-.05-4.16,0-5.49.16-1.33.16-2.28.56-2.86,1.2-.59.64-.88,1.73-.88,3.28,0,1.86.46,3.09,1.39,3.67.93.58,2.32,1.09,4.18,1.52l11.06,2.55c3.13.8,5.43,1.97,6.92,3.52,1.48,1.54,2.23,3.99,2.23,7.35s-.6,5.6-1.79,7.23c-1.19,1.63-3.04,2.72-5.53,3.28-2.49.56-5.65.84-9.47.84-1.43,0-3.57-.05-6.4-.16-2.84-.11-5.95-.45-9.34-1.04l.56-5.35c1.22.05,2.55.11,3.98.16,1.43.05,2.94.08,4.53.08h4.93c2.86,0,5.1-.12,6.72-.36,1.62-.24,2.76-.72,3.42-1.44.66-.72.99-1.8.99-3.24,0-1.76-.54-2.94-1.63-3.55-1.09-.61-2.56-1.13-4.41-1.56l-10.9-2.56c-2.23-.53-3.99-1.26-5.29-2.2-1.3-.93-2.23-2.1-2.78-3.51-.56-1.41-.84-3.18-.84-5.31,0-2.98.53-5.26,1.59-6.83,1.06-1.57,2.72-2.64,4.97-3.2s5.21-.81,8.87-.76Z"/>
        <path class="cls-1" d="m1283.37,412.69c5.99,0,10.33,1.08,13,3.24,2.68,2.16,4.02,5.34,4.02,9.54.05,3.51-.7,6.23-2.27,8.14-1.56,1.92-4.1,2.87-7.6,2.87h-22.43v-5.51h20.44c1.75,0,2.89-.56,3.42-1.68.53-1.12.8-2.4.8-3.83-.05-2.4-.76-4.09-2.11-5.07-1.35-.98-3.67-1.48-6.96-1.48-2.7-.05-4.83.32-6.36,1.12-1.54.8-2.61,2.18-3.22,4.15-.61,1.97-.91,4.74-.91,8.31,0,3.99.38,7.04,1.15,9.14.77,2.1,2.02,3.55,3.74,4.35,1.72.8,4.02,1.2,6.88,1.2,2.02,0,4.28-.09,6.8-.28,2.52-.19,4.81-.41,6.88-.68l.8,5.03c-1.27.53-2.81.97-4.61,1.32-1.8.35-3.66.6-5.57.76-1.91.16-3.66.24-5.25.24-4.56,0-8.22-.69-10.98-2.08-2.76-1.38-4.77-3.58-6.04-6.59-1.27-3.01-1.91-6.96-1.91-11.86s.64-9.16,1.91-12.14c1.27-2.98,3.26-5.1,5.97-6.35,2.7-1.25,6.18-1.88,10.42-1.88Z"/>
        <path class="cls-1" d="m1371.09,412.69c2.6,0,5.14.33,7.63,1,2.49.66,4.85,1.74,7.08,3.23l-.48,4.47c-2.33-.74-4.41-1.32-6.24-1.71-1.83-.4-3.81-.6-5.93-.6s-3.83.36-5.13,1.08c-1.3.72-2.26,2.09-2.86,4.11-.61,2.02-.92,4.9-.92,8.62s.29,6.54.88,8.59c.58,2.05,1.51,3.47,2.78,4.27s2.89,1.2,4.85,1.2c1.48,0,2.84-.19,4.06-.56,1.22-.37,2.49-.98,3.82-1.83,1.32-.85,2.89-1.92,4.69-3.2l.64,4.95c-2.02,2.02-4.36,3.74-7.04,5.15-2.68,1.41-5.63,2.12-8.87,2.12-4.88,0-8.38-1.74-10.5-5.23-2.12-3.49-3.18-8.61-3.18-15.37,0-5.11.54-9.14,1.63-12.1,1.09-2.95,2.72-5.06,4.89-6.31,2.17-1.25,4.9-1.88,8.19-1.88Zm21-15.97v55.9h-6.04l-.88-6.87-.8-.64v-26.51l.48-1.2c-.21-1.49-.34-2.95-.4-4.39-.05-1.44-.08-2.95-.08-4.55v-11.74h7.71Z"/>
        <path class="cls-1" d="m1424.38,412.69c5.99,0,10.33,1.08,13,3.24,2.68,2.16,4.02,5.34,4.02,9.54.05,3.51-.7,6.23-2.27,8.14-1.56,1.92-4.1,2.87-7.6,2.87h-22.43v-5.51h20.44c1.75,0,2.89-.56,3.42-1.68.53-1.12.8-2.4.8-3.83-.05-2.4-.76-4.09-2.11-5.07-1.35-.98-3.67-1.48-6.96-1.48-2.7-.05-4.83.32-6.36,1.12-1.54.8-2.61,2.18-3.22,4.15s-.91,4.74-.91,8.31c0,3.99.38,7.04,1.15,9.14.77,2.1,2.02,3.55,3.74,4.35,1.72.8,4.02,1.2,6.88,1.2,2.02,0,4.28-.09,6.8-.28,2.52-.19,4.81-.41,6.88-.68l.8,5.03c-1.27.53-2.81.97-4.61,1.32-1.8.35-3.66.6-5.57.76-1.91.16-3.66.24-5.25.24-4.56,0-8.22-.69-10.98-2.08-2.76-1.38-4.77-3.58-6.04-6.59-1.27-3.01-1.91-6.96-1.91-11.86s.64-9.16,1.91-12.14c1.27-2.98,3.26-5.1,5.97-6.35,2.7-1.25,6.18-1.88,10.42-1.88Z"/>
        <path class="cls-1" d="m1468.36,412.69c1.7,0,3.53.05,5.49.16,1.96.11,3.91.24,5.85.4,1.93.16,3.7.38,5.29.64l-.56,5.43c-2.49-.11-4.97-.2-7.44-.28-2.47-.08-4.92-.12-7.36-.12-2.33-.05-4.16,0-5.49.16-1.33.16-2.28.56-2.86,1.2-.59.64-.88,1.73-.88,3.28,0,1.86.46,3.09,1.39,3.67.93.58,2.32,1.09,4.18,1.52l11.06,2.55c3.13.8,5.43,1.97,6.92,3.52,1.48,1.54,2.23,3.99,2.23,7.35s-.6,5.6-1.79,7.23c-1.19,1.63-3.04,2.72-5.53,3.28-2.49.56-5.65.84-9.47.84-1.43,0-3.57-.05-6.4-.16-2.84-.11-5.95-.45-9.34-1.04l.56-5.35c1.22.05,2.55.11,3.98.16,1.43.05,2.94.08,4.53.08h4.93c2.86,0,5.1-.12,6.72-.36,1.62-.24,2.76-.72,3.42-1.44.66-.72.99-1.8.99-3.24,0-1.76-.54-2.94-1.63-3.55-1.09-.61-2.56-1.13-4.41-1.56l-10.9-2.56c-2.23-.53-3.99-1.26-5.29-2.2-1.3-.93-2.23-2.1-2.78-3.51-.56-1.41-.84-3.18-.84-5.31,0-2.98.53-5.26,1.59-6.83,1.06-1.57,2.72-2.64,4.97-3.2s5.21-.81,8.87-.76Z"/>
        <path class="cls-1" d="m1505.67,396.96c1.54,0,2.31.77,2.31,2.32v4.55c0,1.54-.77,2.32-2.31,2.32h-3.58c-1.54,0-2.31-.77-2.31-2.32v-4.55c0-1.54.77-2.32,2.31-2.32h3.58Zm1.99,16.69v38.97h-7.56v-38.97h7.56Z"/>
        <path class="cls-1" d="m1528.49,434.97l4.22.56c-.85.74-1.43,1.67-1.75,2.79-.32,1.12-.24,2.13.24,3.03.48.9,1.54,1.49,3.18,1.76l14.47,2.24c3.71.48,6.31,1.61,7.79,3.39,1.48,1.78,2.23,4.33,2.23,7.63s-.6,5.59-1.79,7.35c-1.19,1.76-3.17,3.01-5.93,3.75-2.76.75-6.47,1.12-11.14,1.12-3.66,0-6.71-.2-9.15-.6-2.44-.4-4.39-1.07-5.85-2s-2.51-2.14-3.14-3.63c-.64-1.49-.96-3.33-.96-5.51,0-1.7.25-3.14.76-4.31.5-1.17,1.34-2.21,2.5-3.11,1.17-.9,2.68-1.78,4.53-2.63l5.01-2.48,3.34,1.2-3.82,2.8c-1.11.8-2.03,1.58-2.74,2.36-.71.77-1.26,1.57-1.63,2.39-.37.83-.56,1.82-.56,2.99,0,1.7.33,3.01.99,3.91s1.84,1.52,3.54,1.84c1.7.32,4.06.48,7.08.48s5.36-.17,7-.52,2.8-.96,3.46-1.84c.66-.88,1-2.14,1-3.79,0-1.28-.17-2.25-.52-2.91-.34-.66-.99-1.17-1.95-1.52-.96-.35-2.33-.65-4.14-.92l-13.6-1.75c-1.75-.21-3.13-.76-4.14-1.64-1.01-.88-1.71-1.92-2.11-3.11-.4-1.2-.51-2.4-.32-3.59.19-1.2.61-2.33,1.27-3.4.66-1.06,1.52-1.83,2.58-2.32Zm11.14-22.28c4.19,0,7.52.41,9.98,1.24,2.47.83,4.23,2.16,5.29,3.99,1.06,1.84,1.59,4.22,1.59,7.15s-.53,5.15-1.59,6.98c-1.06,1.84-2.84,3.2-5.33,4.07-2.49.88-5.83,1.32-10.02,1.32s-7.59-.44-10.06-1.32c-2.47-.88-4.23-2.22-5.29-4.03-1.06-1.81-1.59-4.13-1.59-6.95,0-2.98.53-5.39,1.59-7.23,1.06-1.84,2.84-3.17,5.33-3.99,2.49-.82,5.86-1.24,10.1-1.24Zm-.08,5.51c-3.71,0-6.28.52-7.71,1.56-1.43,1.04-2.15,2.81-2.15,5.31s.71,4.21,2.15,5.27c1.43,1.07,4,1.59,7.71,1.59s6.27-.53,7.68-1.59c1.4-1.07,2.11-2.82,2.11-5.27s-.7-4.27-2.11-5.31c-1.41-1.04-3.96-1.56-7.68-1.56Zm21.48-4.55l-.4,3.99-10.02.88-2.78-4.87h13.2Z"/>
        <path class="cls-1" d="m1578.92,413.65l.71,7.51.56,1.12v30.35h-7.64v-38.97h6.36Zm17.9-.96c7.05,0,10.58,3.57,10.58,10.7v29.23h-7.71v-26.99c0-2.45-.4-4.14-1.19-5.07-.8-.93-2.17-1.4-4.13-1.4-2.23,0-4.48.55-6.76,1.64-2.28,1.09-5.01,2.6-8.19,4.51l-.32-5.19c2.97-2.4,5.94-4.23,8.91-5.51,2.97-1.28,5.91-1.91,8.83-1.91Z"/>
        <path class="cls-1" d="m1680.09,412.69c2.6,0,5.14.33,7.63,1,2.49.66,4.85,1.74,7.08,3.23l-.48,4.47c-2.33-.74-4.41-1.32-6.24-1.71-1.83-.4-3.81-.6-5.93-.6s-3.83.36-5.13,1.08c-1.3.72-2.26,2.09-2.86,4.11-.61,2.02-.92,4.9-.92,8.62s.29,6.54.88,8.59c.58,2.05,1.51,3.47,2.78,4.27,1.27.8,2.89,1.2,4.85,1.2,1.48,0,2.84-.19,4.06-.56,1.22-.37,2.49-.98,3.82-1.83,1.32-.85,2.89-1.92,4.69-3.2l.64,4.95c-2.02,2.02-4.36,3.74-7.04,5.15-2.68,1.41-5.63,2.12-8.87,2.12-4.88,0-8.38-1.74-10.5-5.23-2.12-3.49-3.18-8.61-3.18-15.37,0-5.11.54-9.14,1.63-12.1,1.09-2.95,2.72-5.06,4.89-6.31,2.17-1.25,4.9-1.88,8.19-1.88Zm21-15.97v55.9h-6.04l-.88-6.87-.8-.64v-26.51l.48-1.2c-.21-1.49-.34-2.95-.4-4.39-.05-1.44-.08-2.95-.08-4.55v-11.74h7.71Z"/>
        <path class="cls-1" d="m1733.38,412.69c5.99,0,10.33,1.08,13,3.24s4.02,5.34,4.02,9.54c.05,3.51-.7,6.23-2.27,8.14-1.56,1.92-4.1,2.87-7.6,2.87h-22.43v-5.51h20.44c1.75,0,2.89-.56,3.42-1.68.53-1.12.8-2.4.8-3.83-.05-2.4-.76-4.09-2.11-5.07-1.35-.98-3.67-1.48-6.96-1.48-2.7-.05-4.83.32-6.36,1.12-1.54.8-2.61,2.18-3.22,4.15-.61,1.97-.91,4.74-.91,8.31,0,3.99.38,7.04,1.15,9.14.77,2.1,2.02,3.55,3.74,4.35,1.72.8,4.02,1.2,6.88,1.2,2.02,0,4.28-.09,6.8-.28,2.52-.19,4.81-.41,6.88-.68l.8,5.03c-1.27.53-2.81.97-4.61,1.32-1.8.35-3.66.6-5.57.76-1.91.16-3.66.24-5.25.24-4.56,0-8.22-.69-10.98-2.08-2.76-1.38-4.77-3.58-6.04-6.59-1.27-3.01-1.91-6.96-1.91-11.86s.64-9.16,1.91-12.14c1.27-2.98,3.26-5.1,5.97-6.35,2.7-1.25,6.18-1.88,10.42-1.88Z"/>
        <path class="cls-1" d="m1770.36,413.65l.8,7.9.56,1.04v25.08l-.32.96c.16,1.49.26,2.95.32,4.39.05,1.44.05,2.96,0,4.55v10.94h-7.64v-54.86h6.28Zm16.54-.96c4.77,0,8.19,1.76,10.26,5.27,2.07,3.51,3.1,8.65,3.1,15.41,0,5.06-.53,9.06-1.59,12.02-1.06,2.95-2.66,5.06-4.81,6.31-2.15,1.25-4.89,1.88-8.23,1.88-2.6,0-5.13-.36-7.6-1.08-2.47-.72-4.84-1.82-7.12-3.31l.48-4.31c2.33.69,4.42,1.25,6.24,1.68,1.83.43,3.78.64,5.85.64,2.17,0,3.9-.37,5.17-1.12,1.27-.75,2.21-2.13,2.82-4.15.61-2.02.92-4.87.92-8.54s-.28-6.46-.84-8.51c-.56-2.05-1.43-3.51-2.62-4.39-1.19-.88-2.77-1.32-4.73-1.32s-4,.47-5.97,1.4c-1.96.93-4.22,2.38-6.76,4.35l-.8-4.79c1.32-1.49,2.88-2.79,4.65-3.91,1.78-1.12,3.67-1.98,5.69-2.59s3.98-.92,5.89-.92Z"/>
        <path class="cls-1" d="m1822.22,396.72l-.08,44.8c0,1.65.46,2.9,1.39,3.75.93.85,2.21,1.28,3.86,1.28h3.66l.88,5.67c-.53.27-1.26.48-2.19.64-.93.16-1.88.28-2.86.36-.98.08-1.82.12-2.51.12-2.97,0-5.34-.85-7.12-2.56-1.78-1.7-2.66-4.18-2.66-7.43v-46.64h7.63Z"/>
        <path class="cls-1" d="m1859.36,412.69c4.56,0,8.2.67,10.94,2,2.73,1.33,4.69,3.5,5.89,6.51,1.19,3.01,1.79,6.98,1.79,11.94s-.6,9.01-1.79,12.02c-1.19,3.01-3.16,5.18-5.89,6.51-2.73,1.33-6.38,2-10.94,2s-8.13-.67-10.86-2c-2.73-1.33-4.71-3.5-5.93-6.51-1.22-3.01-1.83-7.01-1.83-12.02s.61-8.93,1.83-11.94c1.22-3.01,3.19-5.18,5.93-6.51,2.73-1.33,6.35-2,10.86-2Zm0,6.23c-2.65,0-4.75.43-6.28,1.28-1.54.85-2.63,2.31-3.26,4.35-.64,2.05-.96,4.91-.96,8.59s.32,6.55.96,8.62c.63,2.08,1.72,3.53,3.26,4.36,1.54.82,3.63,1.24,6.28,1.24s4.76-.41,6.32-1.24c1.56-.82,2.66-2.28,3.3-4.36.64-2.08.95-4.95.95-8.62s-.32-6.54-.95-8.59c-.64-2.05-1.74-3.5-3.3-4.35-1.56-.85-3.67-1.28-6.32-1.28Z"/>
        <path class="cls-1" d="m1894.99,413.65l9.78,28.35c.26.8.52,1.61.76,2.44.24.82.44,1.66.6,2.52h1.91l-2.47,5.67h-2.23c-.64,0-1.19-.17-1.67-.52-.48-.35-.82-.84-1.03-1.48l-13.84-36.97h8.19Zm31.82,0l-15.27,40.81c-.64,1.75-1.44,3.48-2.43,5.19-.98,1.7-2.19,3.26-3.62,4.67-1.43,1.41-3.12,2.54-5.05,3.4-1.93.85-4.17,1.28-6.72,1.28l-.71-4.87c3.18-1.01,5.63-2.35,7.36-3.99,1.72-1.65,3.09-3.67,4.1-6.07l1.99-4.79c.42-1.12.85-2.35,1.27-3.71.42-1.36.82-2.54,1.19-3.55l9.62-28.35h8.27Z"/>
      </g>
    </g>
    <g>
      <path class="cls-1" d="m434.81,77.66c90.83,0,136.26,40.73,136.26,122.04v239.87c0,81.41-45.44,122.04-136.26,122.04h-211.41c-90.88,0-136.26-40.63-136.26-122.04v-239.87c0-81.31,45.39-122.04,136.26-122.04h211.41Z"/>
      <g>
        <g>
          <path class="cls-2" d="m405.98,186.11l-2.22-3.35h-.4l2.46,3.72c.06-.12.1-.25.15-.37Z"/>
          <path class="cls-2" d="m443.65,181.91c10.54-7.52,24.5-11.27,41.87-11.27,15.84,0,31.33,2.71,46.46,8.11,15.13,5.41,29.68,13.68,38.97,21.89l-.04-1.47v-39.98c-11.04-5.01-23.71-9.23-38.02-12.65-14.31-3.42-30.05-5.12-47.2-5.12-26.55,0-48.46,6.81-65.72,20.42-3.79,2.98-7.08,6.19-10.04,9.54l19.43,29.37c2.23-7.32,6.96-13.62,14.29-18.84Z"/>
          <path class="cls-2" d="m395.96,212.1c0,18.57,5.22,33.63,15.65,45.19,9.82,10.88,24.66,18.72,44.4,23.6l-57.58-87.03c-1.58,5.74-2.47,11.79-2.47,18.24Z"/>
          <path class="cls-2" d="m567.56,285.28c-9.18-10.14-22.84-17.71-40.97-22.73-8.96-2.39-19.88-4.73-32.78-7.01-12.89-2.28-22.84-4.21-29.83-5.81-.68-.16-1.31-.35-1.97-.52l26.67,40.31s.08.01.12.02c9.56,1.48,18.44,3.36,26.63,5.64,10.82,2.96,18.87,7.12,24.17,12.47,5.3,5.36,7.95,13.67,7.95,24.94,0,13.1-5.6,23.58-16.8,31.44-11.2,7.86-26.85,11.79-46.95,11.79-14.21,0-29.39-2.9-45.56-8.71-16.17-5.81-32.72-18.53-45.07-29.24v46.84c14.53,6.72,28.82,11.79,42.86,15.21,14.04,3.42,29.85,5.12,47.44,5.12,16.39,0,30.4-2.05,42.04-6.15,11.64-4.1,21.82-9.8,30.57-17.09,7.97-6.72,14.18-14.92,18.6-24.61,4.42-9.68,6.64-19.48,6.64-29.39,0-18.22-4.59-32.41-13.77-42.55Z"/>
        </g>
        <polygon class="cls-3" points="467.58 284.35 378.57 150.14 389.06 150.1 479.65 287.39 467.58 284.35"/>
        <g>
          <path class="cls-2" d="m201.19,282.53c68.83.95,68.83-106.45,0-105.5-68.83-.95-68.83,106.45,0,105.5Z"/>
          <path class="cls-2" d="m169.41,375.46c-87.12.46-87.11,132.02,0,132.46,87.11-.46,87.1-132.02,0-132.46Z"/>
          <g>
            <path class="cls-1" d="m169.41,375.46c-87.12.46-87.11,132.02,0,132.46,87.11-.46,87.1-132.02,0-132.46Z"/>
            <path class="cls-1" d="m201.19,177.04c-68.83-.95-68.83,106.45,0,105.5,68.83.95,68.83-106.45,0-105.5Z"/>
            <g>
              <path class="cls-2" d="m271.98,182.79l20.95-.15-21.84-32.51h-38.84c-9.18-3.3-19.46-5.3-31.04-5.36-104.45.54-111.31,147.9-20.6,167.78l15.86,34.33c-8.31-2.16-17.26-3.52-27.04-3.69-130.21,2.3-130.23,194.68,0,197,96.28-1.7,121.29-107.29,75.17-163.15l-29.29-63.38c66.01-9.59,84.49-84.02,56.69-130.87Zm-102.56,325.13c-87.11-.45-87.12-132.01,0-132.46,87.1.45,87.11,132,0,132.46Zm31.78-225.39c-68.83.96-68.83-106.45,0-105.5,68.83-.96,68.83,106.45,0,105.5Z"/>
              <polygon class="cls-2" points="368.84 150.13 281.99 150.13 303.5 182.56 326.69 182.39 326.69 350.97 356.2 367.84 357.52 182.39 391.23 182.79 368.84 150.13"/>
            </g>
          </g>
        </g>
      </g>
    </g>
  </g>
</svg>